#define 7788ab20127b415ff776838a02414e37lFIVWQMAj2TDBFLl_width 251
#define 7788ab20127b415ff776838a02414e37lFIVWQMAj2TDBFLl_height 201
static char 7788ab20127b415ff776838a02414e37lFIVWQMAj2TDBFLl_bits[] = {
  0x00, 0x00, 0x00, 0x00, 0x00, 0x00, 0x00, 0x00, 0x00, 0x00, 0x00, 0x00, 
  0x00, 0x00, 0x00, 0x00, 0x00, 0x00, 0x00, 0x00, 0x00, 0x00, 0x00, 0x00, 
  0x00, 0x00, 0x00, 0x00, 0x00, 0x00, 0x00, 0x00, 0x00, 0x00, 0x00, 0x00, 
  0x00, 0x00, 0x00, 0x00, 0x00, 0x00, 0x00, 0x00, 0x00, 0x00, 0x00, 0x00, 
  0x00, 0x00, 0x00, 0x00, 0x00, 0x00, 0x00, 0x00, 0x00, 0x00, 0x00, 0x00, 
  0x00, 0x00, 0x00, 0x00, 0x00, 0x00, 0x00, 0x00, 0x00, 0x00, 0x00, 0x00, 
  0x00, 0x00, 0x00, 0x00, 0x00, 0x00, 0x00, 0x00, 0x00, 0x00, 0x00, 0x00, 
  0x00, 0x00, 0x00, 0x00, 0x00, 0x00, 0x00, 0x00, 0x00, 0x00, 0x00, 0x00, 
  0x00, 0x00, 0x00, 0x00, 0x00, 0x00, 0x00, 0x00, 0x00, 0x00, 0x00, 0x00, 
  0x00, 0x00, 0x00, 0x00, 0x00, 0x00, 0x00, 0x00, 0x00, 0x00, 0x00, 0x00, 
  0x00, 0x00, 0x00, 0x00, 0x00, 0x00, 0x00, 0x00, 0x00, 0x00, 0x00, 0x00, 
  0x00, 0x00, 0x00, 0x00, 0x00, 0x00, 0x00, 0x00, 0x00, 0x00, 0x00, 0x00, 
  0x00, 0x00, 0x00, 0x00, 0x00, 0x00, 0x00, 0x00, 0x00, 0x00, 0x00, 0x00, 
  0x00, 0x00, 0x00, 0x00, 0x00, 0x00, 0x00, 0x00, 0x00, 0x00, 0x00, 0x00, 
  0x00, 0x00, 0x00, 0x00, 0x00, 0x00, 0x00, 0x00, 0x00, 0x00, 0x00, 0x00, 
  0x00, 0x00, 0x00, 0x00, 0x00, 0x00, 0x00, 0x00, 0x00, 0x00, 0x00, 0x00, 
  0x00, 0x00, 0x00, 0x00, 0x00, 0x00, 0x00, 0x00, 0x00, 0x00, 0x00, 0x00, 
  0x00, 0x00, 0x00, 0x00, 0x00, 0x00, 0x00, 0x00, 0x00, 0x00, 0x00, 0x00, 
  0x00, 0x00, 0x00, 0x00, 0x00, 0x00, 0x00, 0x00, 0x00, 0x00, 0x00, 0x00, 
  0x00, 0x00, 0x00, 0x00, 0x00, 0x00, 0x00, 0x00, 0x00, 0x00, 0x00, 0x00, 
  0x00, 0x00, 0x00, 0x00, 0x00, 0x00, 0x00, 0x00, 0x00, 0x00, 0x00, 0x00, 
  0x00, 0x00, 0x00, 0x00, 0x00, 0x00, 0x00, 0x00, 0x00, 0x00, 0x00, 0x00, 
  0x00, 0x00, 0x00, 0x00, 0x00, 0x00, 0x00, 0x00, 0x00, 0x00, 0x00, 0x00, 
  0x00, 0x00, 0x00, 0x00, 0x00, 0x00, 0x00, 0x00, 0x00, 0x00, 0x00, 0x00, 
  0x00, 0x00, 0x00, 0x00, 0x00, 0x00, 0x00, 0x00, 0x00, 0x00, 0x00, 0x00, 
  0x00, 0x00, 0x00, 0x00, 0x00, 0x00, 0x00, 0x00, 0x00, 0x00, 0x00, 0x00, 
  0x00, 0x00, 0x00, 0x00, 0x00, 0x00, 0x00, 0x00, 0x00, 0x00, 0x00, 0x00, 
  0x00, 0x00, 0x00, 0x00, 0x00, 0x00, 0x00, 0x00, 0x00, 0x00, 0x00, 0x00, 
  0x00, 0x00, 0x00, 0x00, 0x00, 0x00, 0x00, 0x00, 0x00, 0x00, 0x00, 0x00, 
  0x00, 0x00, 0x00, 0x00, 0x00, 0x00, 0x00, 0x00, 0x00, 0x00, 0x00, 0x00, 
  0x00, 0x00, 0x00, 0x00, 0x00, 0x00, 0x00, 0x00, 0x00, 0x00, 0x00, 0x00, 
  0x00, 0x00, 0x00, 0x00, 0x00, 0x00, 0x00, 0x00, 0x00, 0x00, 0x00, 0x00, 
  0x00, 0x00, 0x00, 0x00, 0x00, 0x00, 0x00, 0x00, 0x00, 0x00, 0x00, 0x00, 
  0x00, 0x00, 0x00, 0x00, 0x00, 0x00, 0x00, 0x00, 0x00, 0x00, 0x00, 0x00, 
  0x00, 0x00, 0x00, 0x00, 0x00, 0x00, 0x00, 0x00, 0x00, 0x00, 0x00, 0x00, 
  0x00, 0x00, 0x00, 0x00, 0x00, 0x00, 0x00, 0x00, 0x00, 0x00, 0x00, 0x00, 
  0x00, 0x00, 0x00, 0x00, 0x00, 0x00, 0x00, 0x00, 0x00, 0x00, 0x00, 0x00, 
  0x00, 0x00, 0x00, 0x00, 0x00, 0x00, 0x00, 0x00, 0x00, 0x00, 0x00, 0x00, 
  0x00, 0x00, 0x00, 0x00, 0x00, 0x00, 0x00, 0x00, 0x00, 0x00, 0x00, 0x00, 
  0x00, 0x00, 0x00, 0x00, 0x00, 0x00, 0x00, 0x00, 0x00, 0x00, 0x00, 0x00, 
  0x00, 0x00, 0x00, 0x00, 0x00, 0x00, 0x00, 0x00, 0x00, 0x00, 0x00, 0x00, 
  0x00, 0x00, 0x00, 0x00, 0x00, 0x00, 0x00, 0x00, 0x00, 0x00, 0x00, 0x00, 
  0x00, 0x00, 0x00, 0x00, 0x00, 0x00, 0x00, 0x00, 0x00, 0x00, 0x00, 0x00, 
  0x00, 0x00, 0x00, 0x00, 0x00, 0x24, 0x00, 0x00, 0x00, 0x00, 0x00, 0x00, 
  0x00, 0x00, 0x00, 0x00, 0x00, 0x00, 0x00, 0x00, 0x00, 0x00, 0x00, 0x00, 
  0x00, 0x00, 0x00, 0x00, 0x00, 0x00, 0x00, 0x00, 0x00, 0x00, 0x00, 0x00, 
  0x80, 0x40, 0x00, 0x00, 0x00, 0x00, 0x00, 0x00, 0x00, 0x00, 0x00, 0x00, 
  0x00, 0x00, 0x00, 0x00, 0x00, 0x00, 0x00, 0x00, 0x00, 0x00, 0x00, 0x00, 
  0x00, 0x00, 0x00, 0x00, 0x00, 0x00, 0x00, 0x00, 0x00, 0x00, 0x04, 0x00, 
  0x00, 0x00, 0x00, 0x00, 0x00, 0x00, 0x00, 0x00, 0x00, 0x00, 0x00, 0x00, 
  0x00, 0x00, 0x00, 0x00, 0x00, 0x00, 0x00, 0x00, 0x00, 0x00, 0x00, 0x00, 
  0x00, 0x00, 0x00, 0x00, 0x00, 0x02, 0x00, 0x00, 0x00, 0x00, 0x00, 0x00, 
  0x00, 0x00, 0x00, 0x00, 0x00, 0x00, 0x00, 0x00, 0x00, 0x00, 0x00, 0x00, 
  0x00, 0x00, 0x00, 0x00, 0x00, 0x00, 0x00, 0x00, 0x00, 0x00, 0x00, 0x00, 
  0x00, 0x80, 0x20, 0x00, 0x00, 0x00, 0x00, 0x00, 0x00, 0x00, 0x00, 0x00, 
  0x00, 0x00, 0x00, 0x00, 0x00, 0x00, 0x00, 0x00, 0x00, 0x00, 0x00, 0x00, 
  0x00, 0x00, 0x00, 0x00, 0x00, 0x00, 0x00, 0x00, 0x20, 0x00, 0x02, 0x00, 
  0x00, 0x00, 0x00, 0x00, 0x00, 0x00, 0x00, 0x00, 0x00, 0x00, 0x00, 0x00, 
  0x00, 0x00, 0x00, 0x00, 0x00, 0x00, 0x00, 0x00, 0x00, 0x00, 0x00, 0x00, 
  0x00, 0x00, 0x00, 0x80, 0x08, 0x0A, 0x00, 0x00, 0x00, 0x00, 0x00, 0x00, 
  0x00, 0x00, 0x00, 0x00, 0x00, 0x00, 0x00, 0x00, 0x00, 0x00, 0x00, 0x00, 
  0x00, 0x00, 0x00, 0x00, 0x00, 0x00, 0x00, 0x00, 0x00, 0x00, 0x00, 0x00, 
  0x80, 0x00, 0x80, 0x00, 0x00, 0x00, 0x00, 0x00, 0x00, 0x00, 0x00, 0x00, 
  0x00, 0x00, 0x00, 0x00, 0x00, 0x00, 0x00, 0x00, 0x00, 0x00, 0x00, 0x00, 
  0x00, 0x00, 0x00, 0x00, 0x00, 0x00, 0x00, 0x00, 0x00, 0x00, 0x02, 0x00, 
  0x00, 0x00, 0x00, 0x00, 0x00, 0x00, 0x00, 0x00, 0x00, 0x00, 0x00, 0x00, 
  0x00, 0x00, 0x00, 0x00, 0x00, 0x00, 0x00, 0x00, 0x00, 0x00, 0x00, 0x00, 
  0x00, 0x00, 0x00, 0x00, 0x01, 0x08, 0x20, 0x00, 0x00, 0x00, 0x00, 0x00, 
  0x00, 0x00, 0x00, 0x00, 0x00, 0x00, 0x00, 0x00, 0x00, 0x00, 0x00, 0x00, 
  0x00, 0x00, 0x00, 0x00, 0x00, 0x00, 0x00, 0x00, 0x00, 0x00, 0x00, 0x10, 
  0x00, 0x3F, 0x44, 0x00, 0x00, 0x00, 0x00, 0x00, 0x00, 0x00, 0x00, 0x00, 
  0x00, 0x00, 0x00, 0x00, 0x00, 0x00, 0x00, 0x00, 0x00, 0x00, 0x00, 0x00, 
  0x00, 0x00, 0x00, 0x00, 0x00, 0x00, 0x00, 0x00, 0x44, 0xFD, 0x00, 0x02, 
  0x00, 0x00, 0x00, 0x00, 0x00, 0x00, 0x00, 0x00, 0x00, 0x00, 0x00, 0x00, 
  0x00, 0x00, 0x00, 0x00, 0x00, 0x00, 0x00, 0x00, 0x00, 0x00, 0x00, 0x00, 
  0x00, 0x00, 0x00, 0x00, 0xC4, 0xBD, 0x00, 0x08, 0x00, 0x01, 0x00, 0x00, 
  0x00, 0x00, 0x00, 0x00, 0x00, 0x00, 0x00, 0x00, 0x00, 0x00, 0x00, 0x00, 
  0x00, 0x00, 0x00, 0x00, 0x00, 0x00, 0x00, 0x00, 0x00, 0x00, 0x00, 0x80, 
  0x60, 0xEB, 0x03, 0x00, 0x00, 0x00, 0x00, 0x04, 0x00, 0x00, 0x00, 0x00, 
  0x00, 0x00, 0x00, 0x00, 0x00, 0x00, 0x00, 0x00, 0x00, 0x00, 0x00, 0x00, 
  0x00, 0x00, 0x00, 0x00, 0x00, 0x00, 0x00, 0x08, 0xE0, 0xBD, 0x91, 0x00, 
  0x00, 0x00, 0x00, 0x00, 0x00, 0x00, 0x00, 0x00, 0x00, 0x00, 0x00, 0x00, 
  0x00, 0x00, 0x00, 0x00, 0x00, 0x00, 0x00, 0x00, 0x00, 0x00, 0x00, 0x00, 
  0x00, 0x00, 0x00, 0x00, 0xE0, 0xFF, 0x42, 0x04, 0x08, 0x00, 0x03, 0x00, 
  0x00, 0x00, 0x0D, 0x00, 0x00, 0x00, 0x00, 0x00, 0x00, 0x00, 0x00, 0x00, 
  0x00, 0x00, 0x00, 0x00, 0x00, 0x00, 0x00, 0x00, 0x00, 0x00, 0x00, 0x00, 
  0x42, 0xDE, 0x81, 0x04, 0x80, 0x01, 0x25, 0x00, 0x04, 0x00, 0x25, 0x00, 
  0x00, 0x00, 0x00, 0x00, 0x00, 0x00, 0x00, 0x00, 0x00, 0x00, 0x00, 0x00, 
  0x00, 0x00, 0x00, 0x00, 0x00, 0x00, 0x00, 0x40, 0xE0, 0x77, 0x03, 0x44, 
  0x00, 0x08, 0x00, 0x02, 0x00, 0x00, 0x08, 0x54, 0x00, 0x00, 0x00, 0x00, 
  0x00, 0x00, 0x00, 0x00, 0x00, 0x00, 0x00, 0x00, 0x00, 0x00, 0x00, 0x00, 
  0x00, 0x02, 0x00, 0x00, 0xE0, 0xFF, 0x91, 0x00, 0x04, 0x80, 0x05, 0x20, 
  0x00, 0x00, 0x09, 0x00, 0x00, 0x00, 0x00, 0x00, 0x00, 0x00, 0x00, 0x00, 
  0x00, 0x00, 0x00, 0x00, 0x00, 0x00, 0x00, 0x00, 0x00, 0x00, 0x00, 0x80, 
  0xE0, 0xDE, 0x11, 0x00, 0x24, 0x80, 0x15, 0x10, 0x00, 0x00, 0x02, 0x00, 
  0x00, 0x00, 0x00, 0x00, 0x00, 0x00, 0x00, 0x00, 0x00, 0x00, 0x00, 0x00, 
  0x00, 0x00, 0x00, 0x00, 0x00, 0x02, 0x00, 0x00, 0xC0, 0xDB, 0x40, 0x03, 
  0xE0, 0x8B, 0x08, 0x00, 0x02, 0x00, 0x0A, 0x00, 0x00, 0x80, 0x3F, 0x00, 
  0x00, 0x00, 0x00, 0x00, 0x00, 0x00, 0x00, 0x00, 0x00, 0x00, 0x00, 0x00, 
  0x00, 0x08, 0x00, 0x00, 0x08, 0x56, 0x04, 0x32, 0xF8, 0x5E, 0xC8, 0x01, 
  0x20, 0x00, 0x00, 0x00, 0x00, 0xF0, 0xFF, 0x00, 0x00, 0x00, 0x00, 0x00, 
  0x00, 0x00, 0x00, 0x00, 0x00, 0x00, 0x00, 0x00, 0x00, 0x10, 0x00, 0x00, 
  0x60, 0xA9, 0x09, 0x10, 0xFF, 0x77, 0x01, 0x18, 0x20, 0x00, 0x00, 0x00, 
  0x00, 0xF8, 0xFF, 0x00, 0x00, 0x00, 0x00, 0x00, 0x00, 0x00, 0x00, 0x00, 
  0x00, 0x00, 0x00, 0x00, 0x00, 0x00, 0x00, 0x20, 0x91, 0x54, 0x3A, 0x11, 
  0x7B, 0xFF, 0x1F, 0x48, 0x00, 0x02, 0x00, 0x00, 0x00, 0xFC, 0xFF, 0x01, 
  0x00, 0x00, 0x00, 0x00, 0x00, 0x00, 0x00, 0x00, 0x00, 0x00, 0x00, 0x00, 
  0x00, 0x40, 0x00, 0x00, 0x50, 0xAC, 0xCD, 0x83, 0x7B, 0xFF, 0x5F, 0x80, 
  0x01, 0x00, 0x00, 0x00, 0x08, 0xFF, 0xFF, 0x01, 0x00, 0x00, 0x00, 0x00, 
  0x00, 0x00, 0x00, 0x00, 0x00, 0x00, 0x00, 0x00, 0x00, 0x00, 0x00, 0x40, 
  0x48, 0x51, 0x5A, 0xFC, 0xFF, 0x6B, 0x55, 0x86, 0x18, 0x00, 0x04, 0x00, 
  0xC0, 0xFF, 0xFF, 0x01, 0x00, 0x00, 0x00, 0x00, 0x00, 0x00, 0x00, 0x00, 
  0x00, 0x00, 0x00, 0x00, 0x00, 0x80, 0x00, 0x00, 0x11, 0xC1, 0x75, 0xE8, 
  0xF7, 0x6F, 0xFE, 0x7F, 0x40, 0x00, 0x20, 0x16, 0xE4, 0xFF, 0xFF, 0x03, 
  0x00, 0x00, 0x00, 0x00, 0x00, 0x00, 0x00, 0x00, 0x00, 0x00, 0x00, 0x00, 
  0x00, 0x02, 0x02, 0x00, 0x80, 0x24, 0x4A, 0xE8, 0xBF, 0xFD, 0xFF, 0xFF, 
  0xF7, 0x19, 0x80, 0x40, 0xF0, 0xFF, 0xFF, 0x01, 0x00, 0x00, 0x00, 0x00, 
  0x00, 0x00, 0x00, 0x00, 0x00, 0x00, 0x00, 0x00, 0x00, 0x02, 0x04, 0x00, 
  0x40, 0x8A, 0xAA, 0xA2, 0xAF, 0xFF, 0xFF, 0xFF, 0xEF, 0x10, 0x04, 0x26, 
  0xFD, 0xFF, 0xFF, 0x01, 0x00, 0x00, 0x00, 0x00, 0x00, 0x00, 0x00, 0x00, 
  0x00, 0x00, 0x00, 0x00, 0x00, 0x00, 0x00, 0x00, 0x00, 0x20, 0x59, 0xF5, 
  0xFF, 0xBF, 0xFF, 0xFF, 0x7F, 0x81, 0x92, 0x00, 0xFC, 0xFF, 0xFF, 0x01, 
  0x00, 0x00, 0x00, 0x00, 0x00, 0x00, 0x00, 0x00, 0x00, 0x00, 0x00, 0x00, 
  0x00, 0x00, 0x00, 0x00, 0x81, 0x59, 0x80, 0xFB, 0xFA, 0xFF, 0xFF, 0xFF, 
  0xFF, 0x87, 0x42, 0x85, 0xFF, 0xFF, 0xFF, 0x01, 0x00, 0x00, 0x00, 0x00, 
  0x00, 0x00, 0x00, 0x00, 0x00, 0x00, 0x00, 0x00, 0x00, 0x00, 0x00, 0x00, 
  0x18, 0x00, 0x36, 0xEC, 0xFF, 0xFF, 0xFF, 0xFF, 0xFF, 0x1F, 0x18, 0x78, 
  0xFF, 0xBF, 0xFF, 0x01, 0x00, 0x00, 0x00, 0x00, 0x00, 0x00, 0x00, 0x00, 
  0x00, 0x00, 0x00, 0x00, 0x00, 0x00, 0x00, 0x00, 0x00, 0x08, 0x70, 0xD9, 
  0xFF, 0xFF, 0xFF, 0xFF, 0xFF, 0x4F, 0x86, 0xA1, 0xFF, 0x10, 0xFE, 0x00, 
  0x00, 0x00, 0x00, 0x00, 0x00, 0x00, 0x00, 0x00, 0x00, 0x00, 0x00, 0x00, 
  0x00, 0x08, 0x00, 0x00, 0x40, 0x08, 0x90, 0xDA, 0xFF, 0xFF, 0xFF, 0xFF, 
  0xFF, 0xFF, 0x28, 0xCC, 0xFF, 0x02, 0xF8, 0x00, 0x00, 0x00, 0x00, 0x00, 
  0x00, 0x00, 0x00, 0x00, 0x00, 0x00, 0x00, 0x00, 0x00, 0x02, 0x20, 0x00, 
  0x00, 0xDA, 0x01, 0xFD, 0xFF, 0xFF, 0xFF, 0xFF, 0xFF, 0xFF, 0x95, 0x51, 
  0x9D, 0x68, 0xF8, 0x00, 0x00, 0x00, 0x00, 0x00, 0x00, 0x00, 0x00, 0x00, 
  0x00, 0x00, 0x00, 0x00, 0x00, 0x28, 0x00, 0x00, 0x3F, 0x80, 0x1B, 0xFB, 
  0xFF, 0xFF, 0xFF, 0xFF, 0xFF, 0xFF, 0x11, 0x15, 0xD4, 0x05, 0xF9, 0x00, 
  0x00, 0x00, 0x00, 0x00, 0x00, 0x00, 0x00, 0x00, 0x00, 0x00, 0x00, 0x00, 
  0x00, 0x90, 0x00, 0x80, 0x2F, 0x84, 0x3C, 0xFF, 0xFF, 0xFF, 0xFF, 0xFF, 
  0xFF, 0x7F, 0xF4, 0xFF, 0x11, 0x29, 0x78, 0x00, 0x00, 0x00, 0x00, 0x00, 
  0x00, 0x00, 0x00, 0x00, 0x00, 0x00, 0x00, 0x00, 0x00, 0x01, 0x00, 0xC0, 
  0x7E, 0x04, 0xEC, 0xFF, 0xFF, 0xFF, 0xFF, 0xFF, 0xFF, 0x9F, 0xFD, 0xFF, 
  0xA6, 0x25, 0x38, 0x00, 0x00, 0x00, 0x00, 0x00, 0x00, 0x00, 0x00, 0x00, 
  0x00, 0x00, 0x00, 0x00, 0x00, 0x00, 0x00, 0x70, 0x77, 0x54, 0xE4, 0xFF, 
  0xFF, 0xFF, 0xFF, 0xFF, 0xFF, 0x0F, 0xFD, 0xFF, 0x4F, 0x26, 0x3A, 0x00, 
  0x00, 0x00, 0x00, 0x00, 0x00, 0x00, 0x00, 0x00, 0x00, 0x00, 0x00, 0x00, 
  0x00, 0x00, 0x02, 0xF0, 0x5F, 0xEE, 0xED, 0xFF, 0xFF, 0xFF, 0xFF, 0xFF, 
  0xFF, 0xAF, 0xFF, 0xFF, 0x9F, 0x90, 0x38, 0x00, 0x00, 0x00, 0x00, 0x00, 
  0x00, 0x00, 0x00, 0x00, 0x00, 0x00, 0x00, 0x00, 0x00, 0x00, 0x00, 0xB8, 
  0xFB, 0x78, 0xEE, 0xFF, 0xFF, 0xFF, 0xFF, 0xFF, 0xFF, 0xF7, 0xFF, 0xFF, 
  0x3F, 0x49, 0x1D, 0x00, 0x00, 0x00, 0x00, 0x00, 0x00, 0x00, 0x00, 0x00, 
  0x00, 0x00, 0x00, 0x00, 0x00, 0x00, 0x88, 0xF0, 0xEF, 0x19, 0xFE, 0xFF, 
  0xFF, 0xFF, 0xFF, 0xFF, 0xFF, 0xEB, 0xFF, 0xFF, 0xFF, 0x2F, 0x0C, 0x00, 
  0x00, 0x00, 0x00, 0x00, 0x00, 0x00, 0x00, 0x00, 0x00, 0x00, 0x00, 0x00, 
  0x00, 0x00, 0x00, 0x6C, 0xBE, 0x39, 0xFE, 0xFF, 0xFF, 0xFF, 0xFF, 0xFF, 
  0xFF, 0xFD, 0xFF, 0xFF, 0xFF, 0x6E, 0x0D, 0x00, 0x00, 0x00, 0x00, 0x00, 
  0x00, 0x00, 0x00, 0x00, 0x00, 0x00, 0x00, 0x00, 0x00, 0x00, 0x08, 0xF8, 
  0xF7, 0xF3, 0xFF, 0xFF, 0xFF, 0xFF, 0xFF, 0xFF, 0xFF, 0xF6, 0xFF, 0xFF, 
  0xFF, 0x27, 0x16, 0x00, 0x00, 0x00, 0x00, 0x00, 0x00, 0x00, 0x00, 0x00, 
  0x00, 0x00, 0x00, 0x00, 0x00, 0x00, 0x40, 0xF8, 0xFF, 0xE7, 0xFF, 0xFF, 
  0xFF, 0xFF, 0xFF, 0xFF, 0xFF, 0xFB, 0xFF, 0xFF, 0xFF, 0xB9, 0x02, 0x00, 
  0x00, 0x00, 0x00, 0x00, 0x00, 0x00, 0x00, 0x00, 0x00, 0x00, 0x00, 0x00, 
  0x00, 0x00, 0x00, 0xDC, 0xED, 0x07, 0xFF, 0xFF, 0xFF, 0xFF, 0xFF, 0xFF, 
  0xFF, 0xF8, 0xFF, 0xFF, 0xFF, 0x23, 0x0B, 0x00, 0x00, 0x00, 0x00, 0x00, 
  0x00, 0x00, 0x00, 0x00, 0x00, 0x00, 0x00, 0x00, 0x00, 0x01, 0x00, 0xFC, 
  0xFF, 0x9F, 0xFF, 0xFF, 0xFF, 0xFF, 0xFF, 0xFF, 0x7F, 0xFD, 0xFF, 0xFF, 
  0xFF, 0xEB, 0x01, 0x00, 0x00, 0x00, 0x00, 0x00, 0x00, 0x00, 0x00, 0x00, 
  0x00, 0x00, 0x00, 0x00, 0x00, 0x00, 0x00, 0xB0, 0xFB, 0x4E, 0xFF, 0xFF, 
  0xFF, 0xFF, 0xFF, 0xFF, 0x7F, 0xFC, 0xFF, 0xFF, 0xFF, 0xC9, 0x23, 0x00, 
  0x00, 0x00, 0x00, 0x00, 0x00, 0x00, 0x00, 0x00, 0x00, 0x00, 0x00, 0x00, 
  0x00, 0x00, 0x80, 0xE8, 0xFD, 0xEE, 0xFF, 0xFF, 0xFF, 0xFF, 0xFF, 0xFF, 
  0x7F, 0xFE, 0xFF, 0xFF, 0xFF, 0x67, 0x04, 0x00, 0x00, 0x00, 0x00, 0x00, 
  0x00, 0x00, 0x00, 0x00, 0x00, 0x00, 0x00, 0x00, 0x00, 0x00, 0x00, 0x60, 
  0xFF, 0x8F, 0xFF, 0xFF, 0xFF, 0xFF, 0xFF, 0xFF, 0x7F, 0xFD, 0xFF, 0xF6, 
  0xBF, 0xDA, 0x01, 0x00, 0x00, 0x00, 0x00, 0x64, 0xFF, 0xDF, 0x00, 0x00, 
  0x00, 0x00, 0x00, 0x80, 0x55, 0x01, 0x00, 0xF1, 0xFF, 0xEF, 0xFF, 0xFF, 
  0xFF, 0xFF, 0xFF, 0xFF, 0x7F, 0xF8, 0x7F, 0xEA, 0xBF, 0xA5, 0x16, 0x00, 
  0x00, 0x00, 0xFE, 0xFF, 0xFF, 0xFF, 0x07, 0x00, 0x00, 0x08, 0x00, 0x10, 
  0x10, 0xB5, 0x16, 0xE0, 0xEB, 0xFD, 0xFF, 0xFF, 0xFF, 0xFF, 0xFF, 0xFF, 
  0xBF, 0xEF, 0xBF, 0xD5, 0xFF, 0x4B, 0x00, 0x00, 0x00, 0xFD, 0x5B, 0xF6, 
  0xFF, 0xFF, 0x3F, 0x00, 0x00, 0x20, 0x00, 0x00, 0x00, 0x00, 0x9C, 0x15, 
  0xFF, 0xFE, 0xFF, 0xFF, 0xFF, 0xFF, 0xFF, 0xFF, 0x7F, 0xFE, 0xBF, 0xCD, 
  0xDD, 0x79, 0x0A, 0x00, 0xD8, 0x02, 0x00, 0x00, 0xF4, 0xFF, 0x7F, 0x00, 
  0x00, 0x01, 0x01, 0x00, 0x00, 0x00, 0x00, 0x90, 0x2D, 0xEA, 0xFF, 0xFF, 
  0xFF, 0xFF, 0xFF, 0xFF, 0x3F, 0x9A, 0x7E, 0xB2, 0xAB, 0x87, 0x00, 0x58, 
  0x02, 0x00, 0x00, 0x00, 0xE0, 0xFF, 0x3F, 0x00, 0x80, 0x00, 0x00, 0x00, 
  0x00, 0x00, 0x00, 0x08, 0xF0, 0xF3, 0xFF, 0xFF, 0xFF, 0xFF, 0xFF, 0xFF, 
  0xBF, 0xFC, 0xBB, 0xE0, 0xDB, 0xD6, 0xA5, 0x01, 0x00, 0x00, 0x00, 0x00, 
  0xC0, 0xFF, 0x3F, 0x04, 0x00, 0x08, 0x00, 0x00, 0x00, 0x00, 0x00, 0x18, 
  0x18, 0xFF, 0xFF, 0xFF, 0xFF, 0xFF, 0xFF, 0xFF, 0xBF, 0x97, 0xBD, 0xED, 
  0x65, 0x4A, 0x52, 0x00, 0x00, 0x00, 0x00, 0x00, 0xC0, 0xFF, 0x1F, 0x07, 
  0x00, 0x00, 0x10, 0x00, 0x00, 0x00, 0x00, 0x88, 0x11, 0xFF, 0xFF, 0xFF, 
  0xFF, 0xFF, 0xFF, 0xFF, 0x7F, 0x66, 0x7C, 0xEB, 0x41, 0xF1, 0x25, 0x00, 
  0x00, 0x00, 0x00, 0x00, 0x80, 0xFF, 0x8F, 0x07, 0x00, 0x00, 0x00, 0x00, 
  0x00, 0x00, 0x00, 0xD0, 0xFF, 0xF9, 0xFF, 0xFF, 0xFF, 0xFF, 0xFF, 0xFF, 
  0xBF, 0xDC, 0xF6, 0xF5, 0xB5, 0x45, 0xE6, 0x7F, 0x00, 0x00, 0x04, 0x00, 
  0xE0, 0xFF, 0x83, 0x01, 0x00, 0x00, 0x50, 0x00, 0x00, 0x00, 0x00, 0xFE, 
  0xAF, 0xFD, 0xFF, 0xFF, 0xFF, 0xFF, 0xFF, 0xFF, 0x7F, 0x65, 0xF1, 0xFF, 
  0x48, 0x64, 0x42, 0xFE, 0x07, 0x00, 0x00, 0x00, 0xF0, 0x7F, 0xE0, 0x00, 
  0x00, 0x00, 0x00, 0x01, 0x00, 0x00, 0x00, 0xFF, 0xC8, 0xFF, 0xFF, 0xFF, 
  0xFF, 0x7F, 0xF7, 0xFF, 0x7F, 0xA9, 0xC2, 0x3F, 0xA0, 0x69, 0x04, 0xC0, 
  0x0F, 0x00, 0x08, 0x00, 0xFC, 0x1F, 0x70, 0x00, 0x00, 0x00, 0x00, 0x55, 
  0x29, 0x01, 0x00, 0x7F, 0x80, 0xFF, 0xFF, 0xFF, 0xFF, 0xFF, 0xED, 0xFF, 
  0x7F, 0xAC, 0x81, 0x0F, 0x48, 0x72, 0x00, 0x80, 0x3F, 0x00, 0x00, 0x00, 
  0xFF, 0x01, 0x38, 0x00, 0x00, 0x00, 0x80, 0x08, 0x00, 0x00, 0xA0, 0xFF, 
  0xCE, 0xFC, 0xFF, 0xFF, 0xFF, 0xFF, 0xB7, 0xFD, 0xF7, 0x61, 0x55, 0x00, 
  0x10, 0x5C, 0x09, 0x80, 0x1F, 0x00, 0x00, 0xE0, 0xBF, 0x00, 0x0C, 0x00, 
  0x00, 0x00, 0x00, 0x04, 0x80, 0x00, 0x00, 0x3F, 0xEC, 0xFE, 0xFF, 0xFF, 
  0xFF, 0x3F, 0xD9, 0xFA, 0x6F, 0x96, 0x00, 0x00, 0x10, 0x32, 0x00, 0x80, 
  0x1F, 0x00, 0x01, 0xFA, 0x07, 0x00, 0x06, 0x00, 0x00, 0x00, 0x00, 0xA0, 
  0x10, 0x00, 0x00, 0x7F, 0xE2, 0xFE, 0xFF, 0xBF, 0xFF, 0xFF, 0x26, 0xFD, 
  0xFF, 0x25, 0x06, 0x80, 0x49, 0x15, 0x00, 0x80, 0x0F, 0x00, 0xC4, 0x7F, 
  0x00, 0x00, 0x03, 0x00, 0x00, 0x00, 0x00, 0x10, 0x01, 0x04, 0x00, 0x7A, 
  0xE2, 0xFF, 0xDF, 0xFD, 0xF6, 0x6F, 0xA5, 0xEE, 0xBF, 0x3D, 0x88, 0x40, 
  0x90, 0x0A, 0x00, 0xE0, 0x07, 0x00, 0xF5, 0x02, 0x00, 0xC0, 0x00, 0x00, 
  0x00, 0x00, 0x00, 0x00, 0xA8, 0xBE, 0x00, 0xF8, 0x23, 0xFE, 0xFF, 0xFF, 
  0xFF, 0xBF, 0x6A, 0xBA, 0xFF, 0x9E, 0x32, 0x16, 0x8A, 0x1F, 0x01, 0xF0, 
  0x01, 0x80, 0x46, 0x00, 0x00, 0x60, 0x00, 0x00, 0x00, 0x00, 0x00, 0x08, 
  0x81, 0xF4, 0x0F, 0xE0, 0x67, 0xFE, 0xFF, 0xEF, 0xFF, 0x57, 0x9A, 0xF2, 
  0xCF, 0xAA, 0x49, 0x66, 0x62, 0x07, 0x00, 0x3C, 0x00, 0x7C, 0x00, 0x00, 
  0x00, 0x10, 0x00, 0x00, 0x00, 0x00, 0x00, 0x40, 0x00, 0x00, 0xF9, 0x03, 
  0x7D, 0xFE, 0x7F, 0xBF, 0xFD, 0x6F, 0x25, 0xCD, 0x7F, 0x3B, 0x22, 0x00, 
  0x80, 0x43, 0x40, 0x0B, 0xE0, 0x2B, 0x11, 0x00, 0x00, 0x08, 0x00, 0x00, 
  0x00, 0x00, 0x00, 0x08, 0x20, 0x00, 0x00, 0x3E, 0xF1, 0xFF, 0xEF, 0xA7, 
  0xFB, 0x57, 0xA4, 0xB9, 0xAF, 0xAD, 0x24, 0x15, 0xD0, 0x09, 0x74, 0x82, 
  0x0B, 0x00, 0x00, 0x00, 0x00, 0x02, 0x00, 0x00, 0x00, 0x00, 0x00, 0x80, 
  0x00, 0x00, 0x00, 0xD8, 0xBF, 0xFF, 0x77, 0xFF, 0xF6, 0xAE, 0x5A, 0xEA, 
  0xDF, 0x6A, 0x85, 0x80, 0x6D, 0xC2, 0x9D, 0x36, 0x00, 0x00, 0x04, 0x00, 
  0x00, 0x01, 0x00, 0x00, 0x00, 0x00, 0x00, 0x00, 0x21, 0x00, 0x04, 0x80, 
  0x77, 0xFF, 0x6F, 0x5D, 0xF9, 0x95, 0x41, 0xD5, 0x5F, 0xD5, 0x69, 0x08, 
  0x74, 0xFA, 0x57, 0x00, 0x00, 0x00, 0x00, 0x00, 0x80, 0x00, 0x00, 0x00, 
  0x00, 0x00, 0x00, 0x14, 0x08, 0x00, 0x40, 0x80, 0x98, 0xFF, 0xFB, 0x77, 
  0xFB, 0x5F, 0xA6, 0x6A, 0x9F, 0xAA, 0x27, 0x53, 0xFA, 0x2F, 0x00, 0x00, 
  0x00, 0x00, 0x10, 0x00, 0x00, 0x00, 0x00, 0x00, 0x00, 0x00, 0x00, 0x10, 
  0x00, 0x00, 0x00, 0x0C, 0xF8, 0xFF, 0x3F, 0xBD, 0xF4, 0x9F, 0x99, 0xD6, 
  0x5F, 0x51, 0x4E, 0x92, 0x1B, 0x01, 0x00, 0x00, 0x00, 0x00, 0x00, 0x00, 
  0x00, 0x00, 0x00, 0x00, 0x00, 0x00, 0x00, 0x00, 0x00, 0x00, 0x00, 0x40, 
  0x88, 0xFF, 0xEF, 0x6F, 0xFA, 0x67, 0x44, 0xF9, 0x2F, 0xAC, 0xFD, 0xFD, 
  0x03, 0x00, 0x00, 0x00, 0x00, 0x00, 0x00, 0x00, 0x00, 0x00, 0x00, 0x00, 
  0x00, 0x00, 0x00, 0x00, 0x00, 0x00, 0x00, 0x60, 0x84, 0xFE, 0xFB, 0x59, 
  0xF3, 0xBF, 0x55, 0xA6, 0xC7, 0x95, 0xB2, 0xFF, 0x03, 0x00, 0x00, 0x00, 
  0x00, 0x00, 0x00, 0x00, 0x00, 0x00, 0x00, 0x00, 0x00, 0x00, 0x00, 0x00, 
  0x00, 0x00, 0x00, 0x40, 0x4E, 0xFE, 0x27, 0xAB, 0xF4, 0x5B, 0xAA, 0xF9, 
  0x1F, 0xD1, 0x46, 0xFF, 0x2F, 0x00, 0x00, 0x00, 0x00, 0x00, 0x00, 0x10, 
  0x00, 0x00, 0x00, 0x00, 0x00, 0x00, 0x00, 0x00, 0x00, 0x00, 0x00, 0x01, 
  0xF6, 0xFF, 0x6F, 0x5A, 0xE1, 0x9F, 0x2B, 0xF9, 0xA7, 0x22, 0xBA, 0xFF, 
  0xDF, 0x03, 0x00, 0x00, 0x00, 0x28, 0x00, 0x0C, 0x00, 0x00, 0x00, 0x00, 
  0x00, 0x00, 0x00, 0x00, 0x00, 0x00, 0x00, 0x22, 0xC0, 0xFF, 0xD7, 0x16, 
  0xCA, 0xFF, 0xD5, 0xF7, 0x0B, 0x68, 0x83, 0xFF, 0xFF, 0x1F, 0x00, 0x00, 
  0x00, 0x02, 0x80, 0x01, 0x00, 0x00, 0x00, 0x00, 0x00, 0x00, 0x00, 0x00, 
  0x00, 0x00, 0x00, 0x30, 0xA0, 0xFE, 0x4F, 0xDB, 0xC0, 0x7F, 0xEB, 0xFE, 
  0x25, 0x10, 0xA8, 0xFF, 0xFF, 0x7E, 0x00, 0x00, 0x00, 0x01, 0x60, 0x00, 
  0x00, 0x00, 0x00, 0x00, 0x00, 0x00, 0x00, 0x00, 0x00, 0x00, 0x00, 0x00, 
  0x6B, 0xFF, 0xEF, 0x16, 0x8A, 0xFF, 0x3C, 0xFF, 0x03, 0xC9, 0x8E, 0xFF, 
  0xFF, 0xFF, 0x02, 0x00, 0x80, 0x04, 0x1E, 0x00, 0x00, 0x00, 0x00, 0x00, 
  0x00, 0x00, 0x00, 0x00, 0x00, 0x00, 0x00, 0x80, 0xFF, 0xFE, 0x9F, 0x64, 
  0x82, 0xFF, 0xBF, 0xFF, 0x01, 0x20, 0xAA, 0xFF, 0xFF, 0xFF, 0xBF, 0x03, 
  0x00, 0xD2, 0x03, 0x00, 0x00, 0x00, 0x00, 0x00, 0x00, 0x00, 0x00, 0x00, 
  0x00, 0x00, 0x80, 0xFF, 0xF1, 0xFF, 0xCF, 0x2D, 0x18, 0xFE, 0xFF, 0xFF, 
  0x00, 0x92, 0xC4, 0xFF, 0xFF, 0xEF, 0x0F, 0xFC, 0x85, 0x7E, 0x00, 0x00, 
  0x00, 0x00, 0x00, 0x00, 0x00, 0x00, 0x00, 0x00, 0x00, 0x40, 0xFC, 0x19, 
  0x7E, 0xFF, 0x5F, 0x65, 0x00, 0xFC, 0xFF, 0x7F, 0x00, 0x54, 0xAA, 0xFF, 
  0xFF, 0xBF, 0xFF, 0xC0, 0xFF, 0x07, 0x00, 0x00, 0x00, 0x00, 0x00, 0x00, 
  0x00, 0x00, 0x00, 0x00, 0x00, 0xE0, 0x07, 0xC0, 0x0F, 0xFF, 0x3F, 0x59, 
  0x01, 0xF8, 0xFF, 0x1F, 0x80, 0x88, 0xC2, 0xFF, 0xF0, 0x7F, 0xFF, 0xBF, 
  0xC2, 0x1E, 0x00, 0x00, 0x00, 0x00, 0x00, 0x00, 0x00, 0x00, 0x00, 0x00, 
  0xC0, 0x3F, 0x00, 0xF0, 0x0A, 0xF9, 0x9F, 0xD9, 0x45, 0xC0, 0xFF, 0x07, 
  0x00, 0x08, 0xC2, 0x7F, 0x20, 0xFA, 0xBE, 0x1F, 0x00, 0xF8, 0x01, 0x00, 
  0x00, 0x00, 0x00, 0x00, 0x00, 0x00, 0x00, 0x00, 0xF8, 0x07, 0x60, 0x7C, 
  0x78, 0xF9, 0x3F, 0x22, 0x00, 0x00, 0xFF, 0x01, 0x00, 0x26, 0xF2, 0xFF, 
  0xC0, 0xE0, 0x7D, 0x7F, 0x00, 0x20, 0x7F, 0x00, 0x00, 0x00, 0x00, 0x00, 
  0x00, 0x00, 0x00, 0x80, 0x3F, 0x00, 0x00, 0x7F, 0x80, 0xFB, 0xFF, 0xA4, 
  0x01, 0x00, 0x00, 0x00, 0x00, 0x22, 0xF1, 0x7F, 0x01, 0x81, 0xF9, 0xFD, 
  0x00, 0x00, 0xF8, 0x07, 0x00, 0x00, 0x00, 0x00, 0x00, 0x00, 0x00, 0xD8, 
  0x07, 0x00, 0x90, 0xFF, 0x80, 0xF9, 0x7F, 0x4C, 0x06, 0x00, 0x00, 0x00, 
  0x00, 0x80, 0xF0, 0x7F, 0x03, 0x06, 0xE2, 0xF3, 0x03, 0x00, 0xC0, 0x7F, 
  0x00, 0x00, 0x00, 0x00, 0x00, 0x00, 0x00, 0x6E, 0x00, 0x00, 0x00, 0x3F, 
  0x86, 0xF8, 0xFF, 0x4C, 0x08, 0x00, 0x00, 0x00, 0x80, 0x40, 0xF8, 0x7F, 
  0x08, 0x0C, 0xF0, 0xF7, 0x03, 0x00, 0x00, 0xFC, 0x07, 0x00, 0x00, 0x04, 
  0x00, 0x00, 0x40, 0x08, 0x00, 0x00, 0x88, 0x7F, 0x8C, 0xE8, 0xFF, 0x10, 
  0x11, 0x00, 0x00, 0x00, 0x00, 0x04, 0xF8, 0xFF, 0x09, 0x00, 0xE0, 0xFF, 
  0x07, 0x00, 0x00, 0xE0, 0x3F, 0x00, 0x80, 0x01, 0x00, 0x00, 0x80, 0x01, 
  0x00, 0x00, 0x20, 0xFF, 0xC4, 0xE5, 0xFF, 0x39, 0x21, 0x00, 0x00, 0x00, 
  0x20, 0x21, 0xFC, 0xFF, 0x03, 0x30, 0x00, 0xFF, 0x77, 0x00, 0x00, 0xC0, 
  0xFF, 0x01, 0x60, 0x05, 0x00, 0x80, 0x00, 0x00, 0x00, 0x00, 0x88, 0xFE, 
  0x23, 0xCC, 0xFF, 0x43, 0x4A, 0x00, 0x00, 0x00, 0x08, 0x10, 0xFE, 0x8F, 
  0x7F, 0x40, 0xD0, 0xFF, 0xC2, 0x03, 0x00, 0x00, 0xFF, 0x0F, 0x5A, 0x07, 
  0x00, 0x00, 0x80, 0x00, 0x00, 0x00, 0x00, 0xD0, 0xBF, 0xFE, 0xFF, 0x87, 
  0xA4, 0x01, 0x00, 0x00, 0x42, 0x04, 0xFF, 0x0F, 0xDE, 0xFE, 0xFF, 0x77, 
  0x60, 0x1E, 0x00, 0x00, 0xFE, 0xFF, 0xED, 0x05, 0x00, 0x08, 0x00, 0x00, 
  0x00, 0x00, 0x10, 0x00, 0x3A, 0xC2, 0xFF, 0x07, 0x11, 0x06, 0x00, 0x00, 
  0x12, 0x84, 0xFF, 0x07, 0x3C, 0x01, 0x03, 0x81, 0x00, 0xAA, 0x17, 0x00, 
  0xF8, 0xFF, 0xFF, 0x07, 0x00, 0x00, 0x00, 0x00, 0x00, 0x00, 0x00, 0x00, 
  0x20, 0x48, 0xFF, 0x1F, 0xA2, 0x28, 0x00, 0x98, 0x08, 0xA0, 0xFF, 0x07, 
  0x30, 0xA2, 0x02, 0x01, 0x03, 0xBC, 0xFD, 0xEF, 0xFD, 0xFF, 0xAF, 0x04, 
  0x00, 0x00, 0x00, 0x00, 0x00, 0x00, 0x00, 0x00, 0xB1, 0x07, 0xFF, 0x1F, 
  0x04, 0x41, 0xAA, 0x01, 0x80, 0xC0, 0xFF, 0x03, 0xE0, 0x00, 0xAC, 0x02, 
  0x8C, 0xE0, 0x43, 0xB9, 0xFF, 0xFF, 0x67, 0x07, 0x00, 0x01, 0x00, 0x00, 
  0x00, 0x00, 0x00, 0xD8, 0x01, 0x32, 0xFE, 0x7F, 0x00, 0x0A, 0x84, 0x80, 
  0x00, 0xE0, 0xFF, 0x01, 0xC0, 0x04, 0x08, 0x5E, 0x78, 0x80, 0x77, 0x00, 
  0xFF, 0xFF, 0xFF, 0x07, 0x00, 0x00, 0x08, 0x00, 0x00, 0x00, 0xD0, 0x07, 
  0x00, 0x70, 0xFC, 0xFF, 0x60, 0x60, 0x00, 0x30, 0x18, 0xF8, 0xFF, 0x00, 
  0x80, 0x03, 0x10, 0x80, 0xFF, 0x03, 0xFE, 0xBF, 0xFF, 0xFF, 0xFF, 0x07, 
  0x00, 0x18, 0x00, 0x09, 0x42, 0x99, 0x0F, 0x00, 0x18, 0x10, 0xFF, 0xFF, 
  0x81, 0x80, 0xFD, 0x05, 0x06, 0xFC, 0x7F, 0x00, 0x00, 0x03, 0x00, 0x18, 
  0xE0, 0xFF, 0xFD, 0xFF, 0xFF, 0xFF, 0xAF, 0x00, 0x00, 0x00, 0x00, 0x40, 
  0x9C, 0x95, 0x00, 0x00, 0x80, 0x21, 0xFA, 0xFF, 0x07, 0x16, 0x00, 0x00, 
  0x00, 0xFE, 0x7F, 0x02, 0x00, 0x06, 0x60, 0x00, 0x80, 0xFF, 0xFE, 0xFF, 
  0xFF, 0xFF, 0x05, 0x00, 0x00, 0x00, 0x00, 0x10, 0x00, 0x00, 0x00, 0x00, 
  0x80, 0x19, 0xE0, 0xFF, 0x0F, 0x68, 0x00, 0x55, 0x80, 0xFF, 0x1F, 0x00, 
  0x00, 0x1C, 0x00, 0x00, 0x00, 0xFF, 0x63, 0xFD, 0xFF, 0x0B, 0x00, 0x00, 
  0x00, 0x00, 0x00, 0x00, 0x00, 0x00, 0x00, 0x00, 0x00, 0x18, 0xF0, 0xFF, 
  0x3F, 0x00, 0xBE, 0x00, 0xE0, 0xFF, 0x1F, 0x00, 0x00, 0x18, 0x00, 0x40, 
  0x00, 0xFC, 0x1F, 0x00, 0x00, 0x00, 0x00, 0x00, 0x00, 0x00, 0x00, 0x00, 
  0x00, 0x00, 0x00, 0x00, 0x00, 0xC0, 0xD3, 0xFF, 0x7F, 0x00, 0x00, 0x00, 
  0xF4, 0xFF, 0x0F, 0x00, 0x00, 0x38, 0x00, 0x41, 0x00, 0xF8, 0x7F, 0x00, 
  0x00, 0x00, 0x00, 0x00, 0x00, 0x00, 0x00, 0x00, 0x00, 0x00, 0x00, 0x00, 
  0x40, 0x00, 0x39, 0xFF, 0xFF, 0x07, 0x00, 0x20, 0xFD, 0xFF, 0x1F, 0x00, 
  0x00, 0x70, 0x00, 0x00, 0x00, 0xC0, 0xFF, 0x2F, 0x00, 0x00, 0x20, 0x00, 
  0x00, 0x00, 0x00, 0x00, 0x00, 0x00, 0x00, 0x00, 0x00, 0x80, 0xB0, 0xFF, 
  0xFF, 0xBF, 0x00, 0xA8, 0xFF, 0xFF, 0x1F, 0x00, 0x00, 0xA0, 0x00, 0x00, 
  0x00, 0xC0, 0xFF, 0xFF, 0x05, 0x00, 0x00, 0x00, 0x00, 0x00, 0x00, 0x00, 
  0x00, 0x00, 0x00, 0x00, 0x00, 0x04, 0x80, 0xFF, 0xFF, 0x7F, 0xF7, 0xFB, 
  0xFF, 0xFF, 0x3E, 0x00, 0x00, 0x70, 0x00, 0x00, 0x01, 0x00, 0xFE, 0xFF, 
  0x7F, 0x05, 0x00, 0x00, 0x00, 0x00, 0x00, 0x00, 0x00, 0x00, 0x00, 0x00, 
  0x00, 0xC0, 0x80, 0xF8, 0xFF, 0xFF, 0xFF, 0xFF, 0xFF, 0x7F, 0x7C, 0x00, 
  0x00, 0xC0, 0x02, 0x00, 0x00, 0x00, 0xFC, 0xFF, 0xFF, 0xFF, 0x95, 0x06, 
  0x00, 0x00, 0x00, 0x00, 0x00, 0x00, 0x00, 0x00, 0x00, 0x00, 0x0C, 0xF0, 
  0xFF, 0xFF, 0xFF, 0xFF, 0xFF, 0x3F, 0x79, 0x00, 0x00, 0xC0, 0x06, 0x00, 
  0x04, 0x00, 0xE0, 0xFF, 0xFF, 0xFF, 0xFF, 0x07, 0x00, 0x00, 0x00, 0x00, 
  0x00, 0x00, 0x00, 0x00, 0x00, 0x00, 0x84, 0xC0, 0xFF, 0xFF, 0xFF, 0xFF, 
  0xFF, 0x1F, 0xF8, 0x01, 0x00, 0xC0, 0x04, 0x00, 0x00, 0x00, 0x80, 0xFF, 
  0xFF, 0xFF, 0xFF, 0x07, 0x00, 0x00, 0x00, 0x00, 0x00, 0x00, 0x00, 0x00, 
  0x00, 0x00, 0xC0, 0x0A, 0xFF, 0xFF, 0xFF, 0xFF, 0xFF, 0x03, 0xF0, 0x03, 
  0x00, 0x80, 0x19, 0x00, 0x08, 0x00, 0x00, 0xFA, 0xFF, 0xFF, 0xFF, 0x07, 
  0x00, 0x00, 0x00, 0x00, 0x00, 0x00, 0x00, 0x00, 0x00, 0x00, 0x00, 0x0C, 
  0xFE, 0xFF, 0xFF, 0xFF, 0xFF, 0x00, 0xF9, 0x07, 0x00, 0x80, 0x23, 0x00, 
  0x00, 0x00, 0x00, 0xF0, 0xFF, 0xFF, 0xFF, 0x07, 0x00, 0x00, 0x00, 0x00, 
  0x00, 0x00, 0x00, 0x00, 0x00, 0x00, 0x02, 0x84, 0xF6, 0xFF, 0xFF, 0xFF, 
  0xFF, 0x00, 0xFC, 0x0F, 0x00, 0x80, 0x47, 0x00, 0x02, 0x00, 0x00, 0x00, 
  0xFE, 0xFF, 0xFF, 0x07, 0x00, 0x00, 0x00, 0x00, 0x00, 0x00, 0x00, 0x00, 
  0x00, 0x00, 0x20, 0xA0, 0x0C, 0xFF, 0xFF, 0xFF, 0x23, 0x08, 0xFF, 0x3F, 
  0x00, 0x00, 0x87, 0x02, 0x44, 0x00, 0x00, 0x00, 0xA0, 0xFF, 0xFF, 0x07, 
  0x00, 0x00, 0x00, 0x00, 0x00, 0x00, 0x00, 0x00, 0x00, 0x00, 0x20, 0x60, 
  0xC6, 0xF0, 0xFF, 0xFF, 0x24, 0xC0, 0x1F, 0x7F, 0x00, 0x80, 0x0F, 0x00, 
  0x08, 0x00, 0x00, 0x00, 0x00, 0xA4, 0xFF, 0x07, 0x00, 0x00, 0x00, 0x00, 
  0x00, 0x00, 0x01, 0x00, 0x00, 0x00, 0x00, 0xAA, 0xC0, 0x08, 0x3C, 0x07, 
  0x12, 0xFE, 0x1F, 0xFF, 0x00, 0x00, 0x0F, 0x0C, 0x08, 0x00, 0x00, 0x00, 
  0x00, 0x00, 0x40, 0x04, 0x00, 0x00, 0x00, 0x00, 0x00, 0x80, 0x01, 0x00, 
  0x00, 0x00, 0x00, 0x52, 0x03, 0x14, 0x90, 0x02, 0xC8, 0xFF, 0x27, 0xFE, 
  0x03, 0x80, 0x0F, 0x02, 0x30, 0x00, 0x00, 0x00, 0x00, 0x00, 0x00, 0x00, 
  0x00, 0x00, 0x00, 0x00, 0x00, 0xC0, 0x02, 0x00, 0x00, 0x00, 0x00, 0x1A, 
  0x00, 0x48, 0x00, 0x12, 0xD8, 0xFF, 0x11, 0xF8, 0x0F, 0xC0, 0x1F, 0x30, 
  0x60, 0x06, 0x00, 0x00, 0x00, 0x00, 0x00, 0x00, 0x00, 0x00, 0x00, 0x00, 
  0x00, 0xA0, 0x05, 0x00, 0x20, 0x00, 0x60, 0x26, 0x04, 0x80, 0x08, 0x10, 
  0xFA, 0x7F, 0x00, 0xF8, 0x1F, 0xC0, 0x1F, 0x40, 0xC0, 0x00, 0x00, 0x00, 
  0x00, 0x00, 0x00, 0x00, 0x00, 0x00, 0x00, 0x00, 0x00, 0x20, 0x00, 0x00, 
  0x00, 0x00, 0x98, 0x15, 0x60, 0x00, 0x84, 0x00, 0x35, 0x00, 0x20, 0xF0, 
  0xFF, 0xF1, 0x3F, 0x80, 0x80, 0x01, 0x00, 0x00, 0x00, 0x00, 0x00, 0x00, 
  0x00, 0x00, 0x00, 0x00, 0x00, 0x10, 0x08, 0x00, 0x00, 0x92, 0x49, 0x0A, 
  0x00, 0x02, 0x48, 0x00, 0xFC, 0x00, 0x10, 0xE0, 0xFF, 0xFF, 0x1F, 0x00, 
  0x01, 0x01, 0x00, 0x00, 0x00, 0x00, 0x00, 0x00, 0x00, 0x00, 0x00, 0x00, 
  0x00, 0x20, 0x00, 0x00, 0x40, 0x08, 0xA8, 0x02, 0x00, 0x00, 0x54, 0x00, 
  0x74, 0x00, 0x00, 0xC0, 0xFF, 0xFF, 0x1F, 0x01, 0x02, 0x06, 0x00, 0x00, 
  0x00, 0x00, 0x00, 0x00, 0x00, 0x00, 0x00, 0x00, 0x00, 0x10, 0x08, 0x00, 
  0x00, 0xD1, 0x66, 0x01, 0x00, 0x00, 0x18, 0x00, 0xFC, 0x00, 0x30, 0xA9, 
  0xFF, 0xFF, 0x3F, 0x00, 0x24, 0x0C, 0x00, 0x00, 0x00, 0x00, 0x00, 0x00, 
  0x00, 0x00, 0x00, 0x00, 0x00, 0x10, 0x08, 0x00, 0x10, 0x00, 0xD1, 0x00, 
  0x00, 0x00, 0x04, 0x00, 0x7C, 0x80, 0xBB, 0xA0, 0xFF, 0xFF, 0x3F, 0x80, 
  0x31, 0xB8, 0x00, 0x00, 0x00, 0x00, 0x00, 0x00, 0x00, 0x00, 0x00, 0x00, 
  0x00, 0x10, 0x06, 0x00, 0x40, 0x66, 0x2A, 0x00, 0x02, 0x00, 0x08, 0x00, 
  0xF8, 0x78, 0x00, 0x00, 0xFE, 0xFF, 0x3F, 0x20, 0x40, 0x30, 0x80, 0x01, 
  0x00, 0x00, 0x00, 0x00, 0x00, 0x00, 0x00, 0x00, 0x00, 0x00, 0x07, 0x00, 
  0x60, 0x54, 0x11, 0x00, 0x00, 0x00, 0x08, 0x00, 0x78, 0x03, 0x20, 0x00, 
  0xF8, 0xFF, 0x1F, 0x00, 0x80, 0x71, 0x04, 0x00, 0x00, 0x00, 0x00, 0x00, 
  0x00, 0x00, 0x00, 0x00, 0x00, 0x20, 0x01, 0x00, 0x00, 0x85, 0x1E, 0x00, 
  0x00, 0x00, 0x00, 0x00, 0xB8, 0x00, 0x00, 0x00, 0xF0, 0xFF, 0x3F, 0x00, 
  0x04, 0xCE, 0x0F, 0x00, 0x00, 0x00, 0x00, 0x00, 0x00, 0x00, 0x00, 0x00, 
  0x00, 0xC0, 0x01, 0x00, 0xA0, 0xA9, 0x05, 0x00, 0x00, 0x00, 0x08, 0x00, 
  0x7C, 0x00, 0x18, 0x00, 0xC0, 0xFF, 0x1F, 0x00, 0x20, 0x90, 0x0F, 0x00, 
  0x00, 0x00, 0x00, 0x00, 0x00, 0x00, 0x00, 0x00, 0x00, 0x70, 0x01, 0x00, 
  0x80, 0xD4, 0x02, 0x00, 0x00, 0x00, 0x00, 0x00, 0x70, 0x00, 0x3F, 0x00, 
  0x80, 0xFF, 0x1F, 0x00, 0x80, 0xE0, 0x07, 0x00, 0x00, 0x00, 0x00, 0x00, 
  0x00, 0x00, 0x00, 0x00, 0x00, 0xE8, 0x00, 0x00, 0x80, 0x37, 0x00, 0x00, 
  0x00, 0x00, 0x00, 0x28, 0x10, 0x00, 0x1F, 0x00, 0x00, 0xFE, 0x0F, 0x00, 
  0x00, 0x04, 0x1F, 0x00, 0x00, 0x00, 0x00, 0x00, 0x00, 0x00, 0x00, 0x00, 
  0x00, 0x3C, 0x00, 0x00, 0x00, 0x04, 0x00, 0x00, 0x04, 0x00, 0x08, 0x02, 
  0x40, 0x00, 0x3F, 0x20, 0x00, 0xD0, 0x07, 0x00, 0x00, 0x10, 0x3E, 0x00, 
  0x00, 0x00, 0x00, 0x00, 0x00, 0x00, 0x00, 0x00, 0x80, 0x07, 0x00, 0x00, 
  0x00, 0x00, 0x00, 0x00, 0x00, 0x00, 0x00, 0x00, 0x40, 0x80, 0xFF, 0xBB, 
  0x3F, 0x00, 0x00, 0x00, 0x00, 0x00, 0xFE, 0x01, 0x00, 0x00, 0x00, 0x00, 
  0x00, 0x00, 0x00, 0x00, 0x00, 0x45, 0x00, 0x00, 0x00, 0x00, 0x00, 0x00, 
  0x00, 0x00, 0x40, 0x00, 0x50, 0xF0, 0x1F, 0x00, 0x44, 0x00, 0x00, 0x00, 
  0x00, 0x00, 0xFC, 0x17, 0x00, 0x00, 0x00, 0x01, 0x00, 0x00, 0x00, 0x00, 
  0xC0, 0x03, 0x00, 0x00, 0x00, 0x00, 0x00, 0x00, 0x00, 0x00, 0x10, 0x00, 
  0x68, 0x1E, 0x00, 0x00, 0x00, 0x00, 0x00, 0x00, 0x00, 0x00, 0xFC, 0x3B, 
  0x00, 0x00, 0x80, 0x00, 0x00, 0x00, 0x00, 0x00, 0x40, 0x80, 0x01, 0x00, 
  0x00, 0x00, 0x00, 0x00, 0x00, 0x00, 0x08, 0x00, 0xD0, 0x01, 0x00, 0x00, 
  0x00, 0x00, 0x00, 0x00, 0x00, 0x00, 0xFC, 0xDF, 0x67, 0x00, 0x00, 0x00, 
  0x00, 0x00, 0x00, 0x00, 0xE0, 0xA0, 0x1E, 0x00, 0x00, 0x00, 0x00, 0x00, 
  0x08, 0x00, 0x02, 0x00, 0x14, 0x00, 0x00, 0x00, 0x00, 0x00, 0x00, 0x00, 
  0x00, 0x00, 0xFC, 0x1F, 0xFE, 0x01, 0x00, 0x00, 0x00, 0x00, 0x00, 0x00, 
  0x20, 0xE0, 0x29, 0x00, 0x00, 0x00, 0x00, 0x00, 0x08, 0x00, 0x00, 0x00, 
  0x02, 0x00, 0x00, 0x00, 0x00, 0x00, 0x00, 0x00, 0x00, 0x00, 0xEC, 0x5F, 
  0x00, 0x2C, 0x00, 0x00, 0x00, 0x00, 0x00, 0x00, 0x20, 0x10, 0x61, 0x00, 
  0x00, 0x00, 0x00, 0x00, 0x07, 0x00, 0x00, 0xA0, 0x00, 0x00, 0x00, 0xF0, 
  0x00, 0x00, 0x00, 0x00, 0x00, 0x00, 0x8C, 0x3F, 0x00, 0x00, 0x00, 0x03, 
  0x00, 0x00, 0x00, 0x00, 0x60, 0x18, 0xC0, 0x00, 0x00, 0x00, 0x00, 0xC0, 
  0x01, 0x00, 0x00, 0x04, 0x00, 0x00, 0x00, 0xFC, 0x00, 0x00, 0x00, 0x00, 
  0x00, 0x00, 0x04, 0xFF, 0x00, 0x80, 0x41, 0x00, 0x00, 0x00, 0x00, 0x00, 
  0x20, 0x08, 0x40, 0x00, 0x00, 0x00, 0x00, 0x60, 0x00, 0x00, 0x00, 0x02, 
  0x00, 0x00, 0x00, 0x7E, 0x00, 0x00, 0x00, 0x00, 0x00, 0x00, 0x04, 0xEC, 
  0x03, 0x00, 0x00, 0x01, 0x00, 0x00, 0x00, 0x00, 0x20, 0x08, 0x42, 0x00, 
  0x00, 0x00, 0x00, 0x78, 0x00, 0x00, 0x88, 0x00, 0x00, 0x00, 0xFA, 0xFF, 
  0x3F, 0x00, 0x00, 0x00, 0x00, 0x00, 0x04, 0x98, 0x07, 0x00, 0x00, 0x00, 
  0x00, 0x00, 0x00, 0x00, 0x00, 0x10, 0xC0, 0x00, 0x40, 0x00, 0x00, 0x1C, 
  0x10, 0x00, 0x08, 0x00, 0x00, 0xF0, 0x01, 0x3E, 0x40, 0x00, 0x00, 0x00, 
  0x00, 0x00, 0x0C, 0x38, 0x0E, 0x00, 0x00, 0x00, 0x00, 0x00, 0x00, 0x00, 
  0x80, 0x00, 0x02, 0x00, 0x00, 0x00, 0x00, 0xCE, 0x17, 0x00, 0x0A, 0x00, 
  0x80, 0x06, 0x00, 0x0C, 0x00, 0x00, 0x00, 0x00, 0x00, 0x00, 0x04, 0x30, 
  0x3E, 0x00, 0x00, 0x00, 0x00, 0x00, 0x00, 0x00, 0x00, 0x01, 0x20, 0x00, 
  0x00, 0x00, 0x00, 0xA7, 0x00, 0x00, 0x04, 0x00, 0x08, 0x00, 0x00, 0x02, 
  0x00, 0x00, 0x00, 0x00, 0x00, 0x00, 0x04, 0x30, 0x78, 0x00, 0x00, 0x00, 
  0x00, 0x00, 0x00, 0x00, 0x00, 0x08, 0x0C, 0x00, 0x10, 0x00, 0x80, 0x03, 
  0x00, 0x00, 0x00, 0x00, 0x00, 0x00, 0x00, 0x02, 0x00, 0x00, 0x00, 0x00, 
  0x00, 0x00, 0x04, 0x20, 0xE0, 0x01, 0x00, 0x00, 0x00, 0x00, 0x00, 0x00, 
  0x00, 0x00, 0x05, 0x00, 0x00, 0x00, 0x80, 0x03, 0x00, 0x20, 0x00, 0x00, 
  0x00, 0x00, 0x00, 0x82, 0x00, 0x00, 0x00, 0x00, 0x00, 0x00, 0x04, 0x60, 
  0xC0, 0x07, 0x00, 0x00, 0x00, 0x00, 0x00, 0x00, 0x00, 0x00, 0x00, 0x00, 
  0x00, 0x00, 0xC0, 0x03, 0x00, 0x00, 0x00, 0x10, 0x00, 0x00, 0x00, 0x02, 
  0x00, 0x00, 0x00, 0x00, 0x00, 0x00, 0x04, 0x20, 0x00, 0x0F, 0x00, 0x00, 
  0x00, 0x00, 0x00, 0x00, 0x00, 0x00, 0x08, 0x00, 0x00, 0x00, 0xC0, 0x23, 
  0x00, 0x00, 0x00, 0x01, 0x00, 0x00, 0x00, 0x82, 0x00, 0x00, 0x00, 0x00, 
  0x00, 0x00, 0x04, 0x60, 0x00, 0x1C, 0x00, 0x00, 0x00, 0x00, 0x00, 0x00, 
  0x00, 0x00, 0x08, 0x00, 0x00, 0x00, 0xC0, 0xE3, 0x1B, 0x00, 0x10, 0x00, 
  0x00, 0x00, 0x00, 0x80, 0x00, 0x00, 0x00, 0x00, 0x00, 0x00, 0x04, 0x20, 
  0x00, 0x78, 0x00, 0x00, 0x00, 0x00, 0x00, 0x00, 0x00, 0x2C, 0x08, 0x00, 
  0x00, 0x00, 0x80, 0x47, 0x00, 0x00, 0x04, 0x00, 0x00, 0x00, 0x00, 0xC0, 
  0x00, 0x00, 0x00, 0x00, 0x00, 0x00, 0x0C, 0x20, 0x00, 0xE0, 0x01, 0x00, 
  0x00, 0x00, 0x00, 0x00, 0x00, 0x58, 0x00, 0x00, 0x00, 0x00, 0x80, 0x0F, 
  0x00, 0x00, 0x01, 0x00, 0x00, 0x00, 0x00, 0x42, 0x00, 0x00, 0x00, 0x00, 
  0x00, 0x00, 0x04, 0x20, 0x00, 0x80, 0x07, 0x00, 0x00, 0x00, 0x00, 0x00, 
  0x00, 0x56, 0x00, 0x00, 0x00, 0x00, 0x00, 0x1F, 0x00, 0x10, 0x00, 0x00, 
  0x00, 0x00, 0x00, 0x66, 0x00, 0x00, 0x00, 0x00, 0x00, 0x00, 0x04, 0x10, 
  0x00, 0x00, 0x06, 0x00, 0x00, 0x00, 0x00, 0x00, 0x00, 0x1A, 0x08, 0x00, 
  0x00, 0x00, 0x00, 0x7C, 0x29, 0x00, 0x00, 0x00, 0x00, 0x00, 0x00, 0x62, 
  0x00, 0x00, 0x00, 0x00, 0x00, 0x00, 0x04, 0x10, 0x00, 0x00, 0x3C, 0x00, 
  0x00, 0x00, 0x00, 0x00, 0x00, 0x18, 0x01, 0x00, 0x00, 0x00, 0x00, 0xD0, 
  0x08, 0x00, 0x00, 0x00, 0x80, 0x80, 0x40, 0x32, 0x00, 0x00, 0x00, 0x00, 
  0x00, 0x00, 0x04, 0x10, 0x00, 0x00, 0x70, 0x00, 0x00, 0x00, 0x00, 0x00, 
  0x00, 0x80, 0x00, 0x00, 0x00, 0x00, 0x00, 0x00, 0x00, 0x04, 0x00, 0x00, 
  0x00, 0x21, 0x00, 0x36, 0x00, 0x00, 0x00, 0x00, 0x00, 0x00, 0x04, 0x08, 
  0x00, 0x00, 0xC0, 0x03, 0x00, 0x00, 0x00, 0x00, 0x00, 0x00, 0x00, 0x00, 
  0x00, 0x00, 0x00, 0x00, 0x00, 0x00, 0x80, 0x00, 0x00, 0x00, 0x1D, 0x3A, 
  0x00, 0x00, 0x00, 0x00, 0x00, 0x00, 0x04, 0x08, 0x00, 0x00, 0x00, 0x07, 
  0x00, 0x00, 0x00, 0x00, 0x00, 0x00, 0x00, 0x00, 0x00, 0x00, 0x00, 0x00, 
  0x14, 0x00, 0x00, 0x14, 0x94, 0x62, 0x80, 0x0E, 0x40, 0x00, 0x00, 0x00, 
  0x00, 0x00, 0x04, 0x00, 0x00, 0x00, 0x00, 0x00, 0x00, 0x00, 0x00, 0x00, 
  0x00, 0x00, 0x00, 0x00, 0x00, 0x00, 0x00, 0x00, 0x00, 0x00, 0x01, 0x04, 
  0x8A, 0x99, 0x24, 0x8F, 0x09, 0x00, 0x00, 0x00, 0x00, 0xF4, 0x07, 0x00, 
  0x00, 0x00, 0x00, 0x00, 0x00, 0x00, 0x00, 0x00, 0x00, 0x00, 0x00, 0x00, 
  0x00, 0x00, 0x00, 0x00, 0x88, 0x46, 0x50, 0x40, 0x20, 0x44, 0x93, 0x26, 
  0x00, 0x00, 0x00, 0x00, 0x00, 0xFC, 0x0F, 0x00, 0x00, 0x00, 0x00, 0x00, 
  0x00, 0x00, 0x00, 0x00, 0x00, 0x00, 0x00, 0x00, 0x00, 0x00, 0x00, 0x00, 
  0x01, 0x50, 0x08, 0x59, 0x56, 0x66, 0x9A, 0x16, 0x01, 0x00, 0x00, 0x00, 
  0x00, 0xFF, 0x07, 0x00, 0x00, 0x00, 0x00, 0x00, 0x00, 0x00, 0x00, 0x00, 
  0x00, 0x00, 0x00, 0x00, 0x00, 0x00, 0x00, 0x94, 0x90, 0x0A, 0x52, 0x00, 
  0x40, 0x92, 0x24, 0x8A, 0x24, 0x00, 0x00, 0x00, 0x80, 0xFF, 0x07, 0x00, 
  0x00, 0x00, 0x00, 0x00, 0x00, 0x00, 0x00, 0x00, 0x00, 0x00, 0x00, 0x00, 
  0x00, 0x00, 0x08, 0xA4, 0x25, 0x8A, 0x22, 0x18, 0x24, 0x92, 0x52, 0x44, 
  0x0A, 0x00, 0x00, 0x00, 0xC0, 0xFF, 0x0F, 0x00, 0x00, 0x00, 0x00, 0x00, 
  0x00, 0x00, 0x00, 0x00, 0x00, 0x00, 0x00, 0x00, 0x00, 0x00, 0x10, 0x00, 
  0x84, 0x28, 0x4A, 0x81, 0xA1, 0x24, 0x19, 0x15, 0x10, 0x00, 0x00, 0x00, 
  0xC0, 0xFF, 0x07, 0x00, 0x00, 0x00, 0x00, 0x00, 0x00, 0x00, 0x00, 0x00, 
  0x00, 0x00, 0x00, 0x00, 0x00, 0x00, 0x40, 0x21, 0x61, 0x61, 0x30, 0x14, 
  0x84, 0x53, 0xA1, 0x00, 0x00, 0x00, 0x00, 0x00, 0xE0, 0xFF, 0x03, 0x00, 
  0x00, 0x00, 0x00, 0x00, 0x00, 0x00, 0x00, 0x00, 0x00, 0x00, 0x00, 0x00, 
  0x00, 0x00, 0x00, 0x44, 0x28, 0x86, 0x8D, 0x45, 0x15, 0x48, 0x0C, 0x12, 
  0x00, 0x00, 0x00, 0x00, 0xC0, 0xFF, 0x01, 0x00, 0x00, 0x00, 0x00, 0x00, 
  0x00, 0x00, 0x00, 0x00, 0x00, 0x00, 0x00, 0x00, 0x00, 0x00, 0x08, 0x18, 
  0x8A, 0x94, 0x41, 0x84, 0x44, 0x08, 0x22, 0x81, 0x02, 0x00, 0x00, 0x00, 
  0xC0, 0xFF, 0x01, 0x00, 0x00, 0x00, 0x00, 0x00, 0x00, 0x00, 0x00, 0x00, 
  0x00, 0x00, 0x00, 0x00, 0x00, 0x00, 0x40, 0x81, 0xA9, 0x63, 0x36, 0x22, 
  0x22, 0xA2, 0x00, 0x04, 0x00, 0x00, 0x00, 0x00, 0x80, 0x7F, 0x00, 0x00, 
  0x00, 0x00, 0x00, 0x00, 0x00, 0x00, 0x00, 0x00, 0x00, 0x00, 0x00, 0x00, 
  0x00, 0x00, 0xA2, 0x2A, 0x30, 0x9A, 0x80, 0xCC, 0x00, 0x01, 0x81, 0x00, 
  0x00, 0x00, 0x00, 0x00, 0x00, 0x0B, 0x00, 0x00, 0x00, 0x00, 0x00, 0x00, 
  0x00, 0x00, 0x00, 0x00, 0x00, 0x00, 0x00, 0x00, 0x00, 0x00, 0x00, 0xA0, 
  0x86, 0x24, 0xAD, 0x11, 0xAA, 0x48, 0x08, 0x00, 0x00, 0x00, 0x00, 0x00, 
  0x00, 0x00, 0x00, 0x00, 0x00, 0x00, 0x00, 0x00, 0x00, 0x00, 0x00, 0x00, 
  0x00, 0x00, 0x00, 0x00, 0x00, 0x00, 0x20, 0x20, 0x66, 0x45, 0x12, 0x05, 
  0x05, 0x02, 0x00, 0x00, 0x00, 0x00, 0x00, 0x00, 0x00, 0x00, 0x00, 0x00, 
  0x00, 0x00, 0x00, 0x00, 0x00, 0x00, 0x00, 0x00, 0x00, 0x00, 0x00, 0x00, 
  0x00, 0x00, 0x00, 0x45, 0x00, 0x9A, 0x56, 0xB0, 0x50, 0x20, 0x00, 0x00, 
  0x00, 0x00, 0x00, 0x00, 0x00, 0x00, 0x00, 0x00, 0x00, 0x00, 0x00, 0x00, 
  0x00, 0x00, 0x00, 0x00, 0x00, 0x00, 0x00, 0x00, 0x00, 0x00, 0x08, 0x00, 
  0x9A, 0xA0, 0x24, 0x0A, 0x40, 0x18, 0x00, 0x00, 0x00, 0x00, 0x00, 0x00, 
  0x00, 0x00, 0x00, 0x00, 0x00, 0x00, 0x00, 0x00, 0x00, 0x00, 0x00, 0x00, 
  0x00, 0x00, 0x00, 0x00, 0x00, 0x00, 0x80, 0x52, 0x10, 0x06, 0x81, 0x88, 
  0x05, 0x00, 0x00, 0x00, 0x00, 0x00, 0x00, 0x00, 0x00, 0x00, 0x00, 0x00, 
  0x00, 0x00, 0x00, 0x00, 0x00, 0x00, 0x00, 0x00, 0x00, 0x00, 0x00, 0x00, 
  0x00, 0x00, 0x80, 0x10, 0xA8, 0x50, 0x0A, 0x10, 0x00, 0x01, 0x00, 0x00, 
  0x00, 0x00, 0x00, 0x00, 0x00, 0x00, 0x00, 0x00, 0x00, 0x00, 0x00, 0x00, 
  0x00, 0x00, 0x00, 0x00, 0x00, 0x00, 0x00, 0x00, 0x00, 0x00, 0x00, 0x88, 
  0x21, 0x05, 0x50, 0x09, 0x18, 0x00, 0x00, 0x00, 0x00, 0x00, 0x00, 0x00, 
  0x00, 0x00, 0x00, 0x00, 0x00, 0x00, 0x00, 0x00, 0x00, 0x00, 0x00, 0x00, 
  0x00, 0x00, 0x00, 0x00, 0x00, 0x00, 0x00, 0x01, 0x82, 0x98, 0x8A, 0x02, 
  0x00, 0x00, 0x00, 0x00, 0x00, 0x00, 0x00, 0x00, 0x00, 0x00, 0x00, 0x00, 
  0x00, 0x00, 0x00, 0x00, 0x00, 0x00, 0x00, 0x00, 0x00, 0x00, 0x00, 0x00, 
  0x00, 0x00, 0x00, 0x00, 0x00, 0x00, 0x00, 0x20, 0x00, 0x00, 0x00, 0x00, 
  0x00, 0x00, 0x00, 0x00, 0x00, 0x00, 0x00, 0x00, 0x00, 0x00, 0x00, 0x00, 
  0x00, 0x00, 0x00, 0x00, 0x00, 0x00, 0x00, 0x00, 0x00, 0x00, 0x00, 0x00, 
  0x00, 0x80, 0x04, 0x00, 0x00, 0x00, 0x00, 0x00, 0x00, 0x00, 0x00, 0x00, 
  0x00, 0x00, 0x00, 0x00, 0x00, 0x00, 0x00, 0x00, 0x00, 0x00, 0x00, 0x00, 
  0x00, 0x00, 0x00, 0x00, 0x00, 0x00, 0x00, 0x00, 0x20, 0x02, 0x00, 0x10, 
  0x00, 0x00, 0x00, 0x00, 0x00, 0x00, 0x00, 0x00, 0x00, 0x00, 0x00, 0x00, 
  0x00, 0x00, 0x00, 0x00, 0x00, 0x00, 0x00, 0x00, 0x00, 0x00, 0x00, 0x00, 
  0x00, 0x00, 0x00, 0x00, 0x00, 0x00, 0x80, 0x00, 0x00, 0x00, 0x00, 0x00, 
  0x00, 0x00, 0x00, 0x00, 0x00, 0x00, 0x00, 0x00, 0x00, 0x00, 0x00, 0x00, 
  0x00, 0x00, 0x00, 0x00, 0x00, 0x00, 0x00, 0x00, 0x00, 0x00, 0x00, 0x00, 
  0x00, 0x00, 0x00, 0x00, 0x00, 0x00, 0x00, 0x00, 0x00, 0x00, 0x00, 0x00, 
  0x00, 0x00, 0x00, 0x00, 0x00, 0x00, 0x00, 0x00, 0x00, 0x00, 0x00, 0x00, 
  0x00, 0x00, 0x00, 0x00, 0x00, 0x00, 0x00, 0x00, 0x00, 0x00, 0x00, 0x00, 
  0x00, 0x00, 0x00, 0x00, 0x00, 0x00, 0x00, 0x00, 0x00, 0x00, 0x00, 0x00, 
  0x00, 0x00, 0x00, 0x00, 0x00, 0x00, 0x00, 0x00, 0x00, 0x00, 0x00, 0x00, 
  0x00, 0x00, 0x00, 0x00, 0x00, 0x00, 0x00, 0x00, 0x00, 0x00, 0x00, 0x00, 
  0x00, 0x00, 0x00, 0x00, 0x00, 0x00, 0x00, 0x00, 0x00, 0x00, 0x00, 0x00, 
  0x00, 0x00, 0x00, 0x00, 0x00, 0x00, 0x00, 0x00, 0x00, 0x00, 0x00, 0x00, 
  0x00, 0x00, 0x00, 0x00, 0x00, 0x00, 0x00, 0x00, 0x00, 0x00, 0x00, 0x00, 
  0x00, 0x00, 0x00, 0x00, 0x00, 0x00, 0x00, 0x00, 0x00, 0x00, 0x00, 0x00, 
  0x00, 0x00, 0x00, 0x00, 0x00, 0x00, 0x00, 0x00, 0x00, 0x00, 0x00, 0x00, 
  0x00, 0x00, 0x00, 0x00, 0x00, 0x00, 0x00, 0x00, 0x00, 0x00, 0x00, 0x00, 
  0x00, 0x00, 0x00, 0x00, 0x00, 0x00, 0x00, 0x00, 0x00, 0x00, 0x00, 0x00, 
  0x00, 0x00, 0x00, 0x00, 0x00, 0x00, 0x00, 0x00, 0x00, 0x00, 0x00, 0x00, 
  0x00, 0x00, 0x00, 0x00, 0x00, 0x00, 0x00, 0x00, 0x00, 0x00, 0x00, 0x00, 
  };
